<?xml version="1.0" encoding="utf-8"?>
<!-- Generator: Adobe Illustrator 26.3.1, SVG Export Plug-In . SVG Version: 6.00 Build 0)  -->
<svg version="1.1" xmlns="http://www.w3.org/2000/svg" xmlns:xlink="http://www.w3.org/1999/xlink" x="0px" y="0px"
	 viewBox="0 0 1280 80" style="enable-background:new 0 0 1280 80;" xml:space="preserve">
<style type="text/css">
	.st0{display:none;}
	.st1{display:inline;}
	.st2{fill:#3F3B3C;}
	.st3{fill:#9AB67D;}
</style>
<g id="Layer_1" class="st0">
	<g class="st1">
		<g>
			<g>
				<g>
					<g>
						<path class="st2" d="M792.7,12.9c0.9,0-0.1-2.3-0.1-2.8C791.4,11,792.9,13.6,792.7,12.9z"/>
						<polygon class="st2" points="780.5,21.8 780.6,20.8 779.1,23.7 						"/>
						<path class="st2" d="M767.7,24.5c2.1,3.9,4.5-1.7,7.1-0.7l0.6,0.9l0.3-3.6C773,22.3,769.9,25.3,767.7,24.5z"/>
						<path class="st2" d="M759.1,16.7c0.7,1.6-1.2,1.7,1.7,0.2c-0.2-0.2-0.3-0.2-0.4-0.4C760.2,16.7,759.8,16.7,759.1,16.7z"/>
						<path class="st2" d="M760.4,16.6C761.7,16.2,759.3,15.4,760.4,16.6L760.4,16.6z"/>
						<path class="st2" d="M754.4,18.7l1.5-1.8c-0.5-0.9-2.1-0.8-1.7-1.6C752.6,16.4,753.1,17.3,754.4,18.7z"/>
						<path class="st2" d="M753.3,22.1l0.8-0.8C753.9,20.9,753.6,20.8,753.3,22.1z"/>
						<path class="st2" d="M755.8,19.6l-1.7,1.7c0.4,0.6,0.6,2,0.8-0.6C755,21.9,755.1,20.6,755.8,19.6z"/>
						<path class="st2" d="M757,20c1.2,0.7,2.6,1.1,1,2.9C761.4,21.7,760.3,18.8,757,20z"/>
						<path class="st2" d="M767.9,29l1.6,0.9l0.9-1.7C769.9,29.1,767.6,27.7,767.9,29z"/>
						<path class="st2" d="M743,18.3c0,0.9,1,2.3,1.3,3.4l1.2-1.2C744.7,20,743.3,19.6,743,18.3z"/>
						<path class="st2" d="M744.3,21.7l-1.7,1.9C744.4,23.5,744.6,22.7,744.3,21.7z"/>
						<polygon class="st2" points="753.8,26.8 756.4,23 753.2,27 						"/>
						<polygon class="st2" points="735.6,19.3 736.4,17.1 734.8,20.5 						"/>
						<path class="st2" d="M730.6,20.3c0.6-1.8-1.5-2.8-0.8-4c-1.3,0.5-2.3,2.1-3.1,3.6C727.7,19.1,728.9,19.1,730.6,20.3z"/>
						<path class="st2" d="M725.2,22.2c0.5-0.5,1-1.3,1.5-2.2C726.2,20.5,725.7,21.1,725.2,22.2z"/>
						<path class="st2" d="M739.2,23.7c-0.2-0.5-0.7-1.9-1.9-2.3l1.1,2.4C738.6,23.7,738.9,23.7,739.2,23.7z"/>
						<path class="st2" d="M738.4,23.8L738.4,23.8c-0.9,0-1.5,0-1.7,0C736.9,23.9,737.4,23.9,738.4,23.8z"/>
						<path class="st2" d="M739.4,23.7c-0.1,0-0.1,0-0.2,0C739.3,23.9,739.3,24,739.4,23.7z"/>
						<path class="st2" d="M748.2,25.4c-0.9,1.6-3.1,3.5-0.4,5.3C748.3,28.8,746.8,27.8,748.2,25.4z"/>
						<path class="st2" d="M740.8,26.7l2.2,0.3c-0.1-0.7-0.7-1.6-0.2-2.4L740.8,26.7z"/>
						<polygon class="st2" points="739.9,27.6 740.8,26.7 740,26.6 						"/>
						<path class="st2" d="M729.1,24.1c-0.8,1.2-1.8,1.4-2.9,1.8c1.3,0.3,2.6,0.5,3.7,0.3C730,25.3,730.4,23.8,729.1,24.1z"/>
						<path class="st2" d="M733.7,24.2c-0.1,0.1-0.1,0.1-0.2,0.2C733.6,24.6,733.7,24.6,733.7,24.2z"/>
						<path class="st2" d="M715.1,27.1c0.1,0.2,0.1,0.3,0.2,0.4c0-0.2,0-0.3,0-0.4L715.1,27.1z"/>
						<path class="st2" d="M730.2,26.6c1,0.4,1.4-0.3,1.8-1.2c-0.6,0.3-1.3,0.6-2.1,0.7C729.9,26.5,730,26.7,730.2,26.6z"/>
						<path class="st2" d="M722.3,23.7c0.5,0.5,1.1,0.9,1.7,1.2C723.4,24.2,722.3,23.1,722.3,23.7z"/>
						<path class="st2" d="M733.1,23.7c0,0,0.1-0.1,0.1-0.1C732.8,23.1,732.9,23.3,733.1,23.7z"/>
						<path class="st2" d="M733.1,23.7c-0.4,0.4-0.7,1.1-1,1.7c0.5-0.3,1-0.6,1.4-1C733.3,24.2,733.2,23.9,733.1,23.7z"/>
						<path class="st2" d="M713.4,43.8c-0.1-2.4,2.1-4.8,4.5-2.5c1.9-2-0.3-9.6-2.6-13.8c0,1,0.2,2-1.8,3.6c0.9,1.2,5,2.5,3.4,4.8
							c-2.7,1.5-2.4-0.6-3.9-1.7c1.5,2.8-3.1,4.7-2.1,8.9l2.3-1.8C713.4,42.1,712.6,43.3,713.4,43.8z"/>
						<path class="st2" d="M719.4,27.3l0.8-0.4c-1-0.3-1.8-1.2-3.3-2.9c-1.3,1.3-1.5,2.2-1.5,3l4.3-0.1L719.4,27.3z"/>
						<path class="st2" d="M724,26.5c-0.4,2.7-2.3,4-0.7,6.6c2.5-0.5,1.5-2.4,2.9-3.7c-4,1.2,1-1.6-2.1-2.7c0.7-0.5,1.4-0.8,2.1-1
							c-0.8-0.2-1.5-0.5-2.2-0.9c0,0.1,0.1,0.1,0.1,0.1l0,0l0,0c0.2,0.3,0.3,0.5,0.1,0.3c0,0-0.1,0.1-0.1,0.1
							C724.1,25.9,724.1,26.2,724,26.5c-1.2-0.4-0.3-0.7,0.1-1c0-0.1,0-0.3,0-0.4c0,0,0,0,0,0c-1.3,0.7-2.6,1.2-3.9,1.9
							C721.1,27.2,722.2,27.1,724,26.5z"/>
						<path class="st2" d="M746.4,36.5c-0.2-0.2-0.2-0.4-0.2-0.6C746,36.3,745.9,36.5,746.4,36.5z"/>
						<path class="st2" d="M744.5,35.2c0.2-0.4,0.3-1.5,1.4-1.4c1,0.6,0.2,1.2,0.4,2.1c0.5-0.8,1.8-2.2-0.3-3.1l-0.2,0.4
							c-1.8-0.6-4.4-3.5-4.2-3.9C742.4,31.6,743,33.1,744.5,35.2z"/>
						<path class="st2" d="M734.2,31.6l-3.3,1.7l2,2l-0.3-1.3C734.7,34.3,734.1,32.7,734.2,31.6z"/>
						<polygon class="st2" points="714.6,25.9 714.7,23.1 713.2,27.1 						"/>
						<polygon class="st2" points="710.2,26.7 710.1,24.3 709.1,25.8 						"/>
						<path class="st2" d="M455.2,59l-1,0.7C454.7,59.4,455,59.2,455.2,59z"/>
						<path class="st2" d="M462.7,59.2l0.2-1.2C462.5,58.7,462.4,59.2,462.7,59.2z"/>
						<path class="st2" d="M600.2,31.1c-1.5-2.2-3.1-5.7-3-3l0.4,2.6C598.8,30.2,599.6,30.5,600.2,31.1z"/>
						<path class="st2" d="M523.8,46c0.1,0.3,0.3,0.5,0.4,0.8c0.4-0.9,0.7-1.7,1-2.5C524.8,44.8,524.3,45.4,523.8,46z"/>
						<path class="st2" d="M522.6,56.8l-2-1.7C521.1,55.6,521.7,56.2,522.6,56.8z"/>
						<path class="st2" d="M414.6,61.4l-1.2,2.6C415.2,64,414.4,62.7,414.6,61.4z"/>
						<path class="st2" d="M664.7,30.7c-1.3-1-2.3-1.4-3.2-1.5C663,30.7,664.4,32.9,664.7,30.7z"/>
						<path class="st2" d="M458.4,31.4c-0.6,0.5-0.9,1-0.9,1.6C458.2,32.5,458.6,32,458.4,31.4z"/>
						<path class="st2" d="M657.8,29.4c0.2,0.3,0.5,0.4,0.7,0.6c0.9-0.5,1.8-0.9,3-0.7C660.3,28.2,658.9,27.6,657.8,29.4z"/>
						<path class="st2" d="M267.2,57.8c-0.1-0.1-0.2-0.2-0.3-0.3C266.9,57.8,267,57.9,267.2,57.8z"/>
						<path class="st2" d="M224.6,31.1c0.4-0.2,1.1-0.2,1.8-0.2C226,30.8,225.5,30.8,224.6,31.1z"/>
						<path class="st2" d="M692.3,27C693.2,26.8,692.4,26.7,692.3,27L692.3,27z"/>
						<path class="st2" d="M697.7,36.9c-0.2,0.3-0.3,0.7-0.3,1.3C697.4,37.6,697.5,37.2,697.7,36.9z"/>
						<path class="st2" d="M648.7,45.9C648.7,45.9,648.7,45.9,648.7,45.9C648.9,46.4,648.9,46.3,648.7,45.9z"/>
						<path class="st2" d="M693.8,28.1c-0.4-0.3-0.8-0.5-1.3-0.7C692.7,27.6,693.1,27.9,693.8,28.1z"/>
						<path class="st2" d="M693.5,26.9c0.3,0.1,0.6,0.1,0.8,0.2C694.4,26.7,694.3,26.4,693.5,26.9z"/>
						<path class="st2" d="M691,27.3c0.5-0.1,1,0,1.5,0.2c-0.2-0.2-0.3-0.3-0.2-0.4C692,27.1,691.6,27.2,691,27.3z"/>
						<path class="st2" d="M346.3,51.6c-0.1-0.1-0.1-0.1-0.2-0.2C345.1,52.4,345.5,52.2,346.3,51.6z"/>
						<path class="st2" d="M575,58c0,0,0.1-0.1,0.1-0.1c0,0-0.1-0.1-0.1-0.1L575,58z"/>
						<path class="st2" d="M571.5,59.9c1.5-3.2,2.3-2.8,3.5-2.1l-1.1-7.5L571.5,59.9z"/>
						<path class="st2" d="M437.4,59.6l2.4,2.4c-3,3.8-5.1,2.5-2.8,5.8c0.4-8.1,9.5-0.7,9.9-8.9l1.6,1.7c-0.5-0.1-0.5,0.4-1,0.3
							c3.1,3.9,2.4-5.9,6.4-4.7c1.4,0.6,2.4,1.8,1.4,2.8l3.1-2c0.9,0.2,0.7,1.6-0.2,1.4l4.8-0.6l0,0.2c0.7-1.3,2.2-3.2,3-4.1
							c1.2,1.2-0.6,0.9-0.3,1.9l2.7-1.9c1.1,2.1-1.1,4.1-3,3.8c2.4,8.2,2.2-2,7.5,2.8l-2.5,1c1.6,4.6,3.5,3,6.3,5.9
							c-0.7-1.5-5.6-7.3-2.7-9.3c0.8,0.6,1.9,0.9,3.4-0.7c0,2.9,1.5,2.2,3.4,2.1l-0.2,3.8c2-1.1,1.9-3,3.1-4.8
							c2.3,0.4,2.7,3.4,3.2,5.9c3.6,0.6-2.5-4.8,1.8-5.5c3,1.5,5.1-0.1,8.8-2.3c2.1,1.3-0.4,2.3,0.4,3.4l1.9-3
							c0.5,0.1,0.3,1,0.2,1.5c1.6-1.2,0.2-3.8,2.7-4.9c0.7-4.2,5,6.2,8.2,1.5c0.7,1.1-0.4,2.3-0.2,3.8c4.2-3.1,3.6-2.3,7.1-6.5
							l2.9,2.5c-2.1-2.9,0.7-6.3,3.1-9.1c-0.8-1.4-1.4-2.6-1.8-3.2l3.9-2c0.5,0.6,0.1,1.9-0.6,3.5c0.3-0.3,0.5-0.6,0.7-0.9
							c1.4,1.4,0.6,3.6-0.4,5.8c-0.5-0.8-0.9-1.6-1.4-2.4c-1,2.3-1.9,4.9-1.7,7.1c0.3-0.4,0.7-0.8,1.3-1c-0.3,0.6-0.4,1.2-0.3,1.6
							c0.1,0.4,0.5-0.4,1.2-1.4l0.8,4.3l0.2-1.7l5,2.7c3.7-4.3,6.9-10.6,12.7-12.3c-1.5,3.1-0.4,5.1-0.5,8.8
							c-1.5-3.9-4.5,1.6-7.4,0.8c1.6,0.4,1.2,2.2,0.8,2.8l5.4-3.5c-0.1,3,1.1,2.3,2.5,3.6c-1-6,4-4,6.2-5.8c0.1,2-0.4,4.1-3.1,3.6
							c2.9,4.6,3.8-7,6.7-3.2c-0.6,0-1-0.3-1.3,0.8c1.5-1.8,5.2-0.3,4.3,1.4l-0.6,0c4.3,0.8,13,0.2,13.7-4.9c0,0.7-0.6,6.1-0.9,7.2
							l7.8-17.1c-0.7,4.4,1.8,14.8-1.8,17.3c1,0.6,2.3,1.4,4.4-0.2c-0.7-0.6-1.7-6.3-0.7-6.7c2.6,4.9,1.8,2.6,5,6.8
							c-1-0.9,0.2-7.8,1.8-7.6c-0.3,1,0.1,6.8-0.5,7.5l4.1-6.7c-1,1.2-0.2,5.7,0.7,7.6c-0.4-1.3,3.6,0.1,4.7-0.5l-1.7-1.6
							c4.6,1,4.6-9.5,9.2-9.1c-0.6,1.4-1.4,8.6,1,9.4c1.1-3.4,4.8-16.6,8.8-19.3l0.8,2l3.1-2.3c-1.9,5.2-7.3,16.2-10.3,20.4
							c1.7,1.6,0.5,2.3,3.1,2.1c0.9,1.8-1.4,2.8-2.2,2.9l6.1,1.2c-0.3-4,4.6-4.1,4.4-7.4l-6.6,4.2c-0.3-4,3.8-11.5,8.1-10.8
							c1.1,1.6-0.8,7.2-0.7,8.5c0.6-1.4,4.1-2.7,4.5-1.7l-1.8,2.2c2.4,1.5,3.9-5.4,6.8-1.6c1,0.2,3,5.2,3.2,2.8
							c-1.7-4.6-2.2-18.8-1.1-22.3c0.3,0.3,5.2,4.3,6.4,6.6c1.7,3.6-2.3,8.6-0.9,11.7c0-1.1,0.9-2.5,1.3-2.9
							c1.1,0.9-0.4,3.4,1.9,2.9c0.3-4.1,4.6,0.2,1-3.5c2.2-1.2,2.4,0.8,5,0.5c-0.9-2.6,2.1-9,4.3-10.3c-0.1,1,0.4,2.4,0.7,3
							c4.5,0.3,7,2,11.2,1.9c0.4,1,2.5,2.1,1.7,3.9c0.6-0.7,1.1-2.1,2.4-2.3c2.7,3.4-2.9,0.7-0.8,4.8c0.1-2.4,3.3-3.4,5-5
							c-0.7-3.6-4.3-0.5-6.1,1c-0.2-5.1,2.8-10.4,7.1-13c3.4-1.4,1.7,3.2,2.2,2.4c6.6,0.5,5.1-9.1,10.7-5.8c2.3,3.1,0.5,6.4,1.1,8.7
							c-2.8,1.4-4.5-1.8-6.4-1.6l2.5,1.4c-0.8,1.1-2.7,2-3.8,1.1c1,1.4,3.8,1.4,7,1.3c3.2-0.1,6.8-0.3,9.4,0.9
							c0.8-1.1,2.3-2.4,1.5-3.6l-1.6,0.6c-1.7-2.5,2.7-3.8,0.6-4.9c2-1.9,4.2-5,7.3-3.8l0.9,3.6c-0.2-1.1-2.1-2-2.9-0.8
							c1.1-1.7,5,4.6,6-0.4l-2.3-2.4c2-2,4.2-6.1,7-5.2c-1.5-3.5-0.6,0.5-2.8-3.6c2.1,5.1-6.7,0.4-3.6,5.7c-2.3-4.8-3.5-1.8-6.3-5.8
							c0.2,1.2,1.1,2.2-1.2,1.8c-0.1,0.4-0.3,0.8-0.4,1.1c-0.1,0-0.1,0-0.2-0.1c0,0,0.1,0.1,0.1,0.1c-0.1,0.2-0.1,0.2,0,0
							c0.6,0.5,1,1.1,1.3,1.7c-0.9,2.9-4.4,3-5.5,4.5c-1.4-0.5,0.5-1.4-0.4-2.7l-1.6,2.3c-0.4-2.7-3.8-4.2-0.8-6l-2.8,0.1
							c-1.7-1.4-4-1.8-5.3-0.6c-1.3-0.5-3.2,3.1-2.1,1l-4.3,1.9l-0.1-0.7c-2.2-0.1-4.3,1.2-6.6,1.8c-2.3,0.6-4.7,0.7-7.2-1.6
							c-1.4,0.7-2.9,1.6-5.4,0.9l-0.5-2.3c-1.8,0.9-5.7-2.2-6.4,0.3c-2.2-6.2-9.1-1.1-12.4-2.2l-0.1,3c-2.3-0.1-4.4,0.7-7.3,2
							l0.2,2.7c-2.4,2.2-6.3-1.8-10.2-1.6c0.3-1,1.2-0.8,1.9-0.1c-4.6-6.1-9.7,4.5-13.9,0c-1,1-1.8,0.6-2.5,0c0.1,0,0.2-0.1,0.3-0.1
							c-0.1,0-0.3,0-0.4,0c-0.5-0.5-0.9-1-1.4-1.4c0.4,0.7,0.9,1.2,1.2,1.4c-0.8,0.1-2,0.4-3.2,1.1l-0.5-2.9c-0.1,0-0.2,0-0.3,0.1
							c-1.2-1.1-0.9,1.4-0.3,3.5c-0.6,0.5-1.2,1-1.6,1.7c-0.9-4.7-3.2,1.6-4.4-3.4c-0.8,2.4-6,1.8-6.7,6.9c0-0.7-0.4-1,0.3-1
							c-1.3-0.6-2.7-1.2-3.9,0.2l-0.5-3.7l-3,4.9c-1.8-2.3-2.5-3.6-0.7-6.4c-4.3,4.3-3.5,1.6-7.1,5.9l0.2-2.4
							c-1.3,0.1-3.4,3.2-4.2,1.3c-2.9-4.5-14.4-0.8-21.8-5c1.4,7-3.4-3.2-3.8,2.2c-0.4-1.7-1.4-2.6-0.2-4c-3.8,1.6-5.7-2.7-8.4,1.9
							c-0.4-1.7,0.8-2.4,0.5-3.4c-0.3,0.4-1.2,1.4-1.6,0.4c-0.4-1,0.6-1.4,1.2-2.1c-3.9,0.2-4.3,5.3-4.7,10.1
							c-1.9-2.3-2.9-2-4.4,1.2c-0.7-1.6-1.8-3.2,0.6-3.8c-1.4-0.2-8.3-2.4-8.5,1.5c-0.4-1-1.9-0.3-2.3,0.1c-3-0.3-3.3-0.6-6.3-0.3
							l0.8,0.6c-1.2,4.6-2.5,1-4.9,1.5l0.1-0.5c-5.5-3.4-2.4,1.6-7.8-2.3l0.3,2.9c-0.6,6.2-4.8-3.7-8-1.4l1.1,1.7
							c-1.8,2.1-4.8-8.5-6.5-9.3c-0.4-0.5,0.6-0.9,1.1-1.3c-4.5-3.7-0.6,3.8-4,4.6c-0.6-2,0.9-5.2-1.4-5.6c-1.1-1.7-6.7,6.5-9.8,2.6
							c0.7,1.6,1.3,3.1-0.2,4.3c-2.4,0.5-6.5-6-8.7-1.1c-0.3-0.4-0.4-0.8-0.4-1.2c-1.9,1.3-6,2.1-7.2,4.7c-1.6-10-11.5,4.7-11.4-4.4
							l-5.7,0.4l0.2-0.9c-3.6-0.6-4.9,1.5-6.2,3.7c-0.8-0.6-0.2-1.5-0.1-2c-5.3-1.9-5.8-1.5-10.3,3l-0.4-3
							c-1.2,1.7-7.6-4.7-12.8-1.3c0.1-0.3,0.2-0.9,0.6-1.3c-5.9,3.4-13.9-8.4-16.2,2.4l-3.9,2.6c5,0.9-0.8,4.7,1.2,6.5
							c-2,0.6-5-3.3-2.6-3.8l0.4,0.5c0.9-5.6-6.2-2.1-6-5.9c-9.8,0.2-19.4-3-28.6-3.4l1,4.4l-3.2-0.3c-0.8-1-1.1-3.4,1.2-3.2
							c-1.2-2.5-3.9,2-3.9,3c-4.5-1.8,1.8-5.1,0.4-5.2l-1.9,0.3l0.4,0.5c-1.5,1.8-1.7,3.7-4.4,3.4c-1.7-0.9-0.9-2.7-1.6-2.9
							c0-0.3-0.2-0.5-1.1-0.1l-4-0.4l1.6,3.5c-1.8,1.7-3.8-0.2-2,3.7c-2.7-6.1-15.1-2.3-16.7-4.2c-2.5,2.5-5,2.4-8.1,2.1
							c0.8,0.7,1.2,4.6-1.5,4.1c1-8-4.8-3.5-6.9-9.3c1.9,3.9-7.5,0.9-4.6,6.3c-2.2-0.7-0.1-3-1.8-4.9c-5.3,3.1-11.6-2.1-18.1-1.1
							c-0.1,1.1,1,2.7-0.4,4.2l-3.4-5.3c-1.3,0.5-1.2,6.1-3.6,2.4c0.3,0.9,0.8,2.2-0.1,2.6c-12.7-5.3-26.1,4-38.9-5.8
							c1.7,2.1,0.6,2.3-0.8,2.3c0.9,0.5,0,2.6,0.1,4l-5.4-4c-1,4-5.8,0.2-6.4,4l1.7-0.7c-2.3,4.5,3.1,10,2.7,15.7
							c2.6-5.1,6.7,7.6,10.9,0.4c0.9,1.2-0.8,1.8-0.3,3.2c1.1-2.5,2.4-3,4.7-1.8l-0.3,0.6c6.7-0.5,9.5,1.9,17,3.6l-0.5-2.8
							c1.6,0.4,1.9,1.3,2.7,2c1.9-4.3-4.5-0.3-2.8-5c2.1,5.8,11.4,0.2,12.7,6.8c2.5,0.1-0.7-3.3,1.8-3.2l0.6,1.8l0.6-2.3
							c1.6,0.4,2.4,2.6,2.5,4.1c-0.4-0.2-1.1,0.4-1.5,0.5c2.1,2.1,5.9-0.7,6.7,0l-2.4-1.1c6.8-1.6,15,0.8,21.6-2.7l-0.5-1.3
							c5-2.4,4,1.5,9.5,0.4l-0.2,0.3c1.1-1.3,2.6-2,4.1-1.8c-1.4,1.6,2.6,3.1,0.7,4.8c5.4-2.6,2.7-2.1,6.3-7l0.8,2.2
							c1.2-2,1.3-3.1,4.1-3.6c-2.3,1.9,1.7,3.4-0.8,5.9c5.7,4.9,8.6-4.8,11.1,2.3c2.7-6.1-4.9-3.5-3.4-4.8c-1.2-2,2.2-4.6,4-3.9
							c1.8,0.2,3,7.9,7.7,7.8c-0.5,0-0.5,0.4-1,0.4c1.7,1.6,3.4-2.1,5.5,0.5c1.2-3.7,2.7,0.2,3.1-4.5l-4.2,1.1
							c2.4-1.2,4.7-6.8,8.6-4c-0.3,1-1.5,2.2-2.3,2.9c1.1,1.4,2.2-0.9,3.4,0.5c-0.4,4.8-5.2,1-7.8,4.6c1.2,2,4.9-3.4,3.6,1.7
							c1.9-6.5,4.5,0.9,7.7-4.1l-0.2,2.8c0.5-0.4,1.5-1.8,2.4-1.7l-1.7,3.7c2.6-3.1,4.9,2.8,7.3,1.1c-5.1,0-1.1-3.4-3.2-5.5
							c6.3-3.8,3.5,7.5,10.6,6.2c-1,0.4-3.6-1.7-2.1-3c1.3,0.6,3.1,1.7,3.9,3.2c4.7-0.5-0.7-2.9,1.3-4.7c1.5,3.5,2.3-1.4,4.3-2.5
							l0,2.9c5.3,1.9,1.5-6,6.2-3.7l-2.1,4l2.5-1l-0.5,3.3c2.7-2.4,3.6-1.8,6.2-0.8c-0.6-2,0.4-5.2,2.7-5.3c1.6,1.7-0.9,2.7,2.4,2.4
							c-0.8,1.8-1.6,4.1-3,1.4c-0.2,0.9-0.8,1.8-0.9,2.7c1.7,2,4.3,0.5,5.5,0.5c-0.5-0.1-1-0.3-1.3-0.7l4.9-4c0.7,1.1,0.1,2-0.5,2.8
							c1-0.3,1.7-1.6,3.1-1.9c-0.4,2.3-0.3,4.8-2.4,5.9l4.6-2.6c0.3,1,2.3,2.8,1.7,3.7c2.5,1.4,6.3-4.5,9.7-2.6
							c0.2-0.5,0.5-0.9,1.3-1.2c3.2,0.6,6,3.5,9.7,0.3l2.1,4.2c3-0.9-2.8-5.3,2.1-6.9c3.5-1.3,1.3,3.6,2.5,4.8
							c1.7-2.1,4.8-6.4,7.9-2.9C439.2,59.9,438.4,59.3,437.4,59.6z M473.8,58c-0.7,0.6-2.1,2.5-2.6,0.7
							C472,55.5,472.6,57.1,473.8,58z M529.1,51.6c-0.5,1-1.3,0.5-2.2-0.6C527.5,50.7,528.2,50.9,529.1,51.6z M682.1,30.1
							c0,0,0,0.1-0.1,0.1C680.4,29.2,681,29.6,682.1,30.1z M685.4,31.1c0.3-0.4,0.2-0.8,0.1-1.2c-0.2,0.7-0.9,0.8-1.7,0.7
							C684,31.3,684.4,31.8,685.4,31.1z M336.2,32l0.6,0.8C335.3,33.6,335.7,32.8,336.2,32z"/>
						<path class="st2" d="M522.8,55.5c-0.2-0.5-0.2-1-0.3-1.6C522.2,54.4,522.2,55,522.8,55.5z"/>
						<path class="st2" d="M414.8,60.9c0,0-0.1,0-0.1,0c-0.1,0.2-0.1,0.3-0.1,0.5L414.8,60.9z"/>
						<path class="st2" d="M635.9,57.6c-0.7-0.4-1.1-0.9-1.3-1.5C634.6,56.8,634.9,57.4,635.9,57.6z"/>
						<path class="st2" d="M701.9,24.9l-2,0.9c1-0.2,1.4,0.4,1.9,0.8C701.7,26,701.3,25,701.9,24.9z"/>
						<path class="st2" d="M721.5,41c0.3-0.4,0.6-0.1,0.9-0.5l-0.2-1.3C720.9,39.4,720.1,40.6,721.5,41z"/>
						<path class="st2" d="M704.6,34.4c0.4,2.4,1.6,1.5,3,0.9c-0.1,0-0.2,0-0.3,0C707.5,31.9,706.1,33.1,704.6,34.4z"/>
						<path class="st2" d="M708,35.2c0.4-0.2,0.9-0.3,1.3-0.2C709.3,33.6,708.7,34.7,708,35.2z"/>
						<path class="st2" d="M689.3,29.2c0.7,0.6,0.2-3.1,0.7-2.2C690.5,23.9,685.7,31.1,689.3,29.2z"/>
						<polygon class="st2" points="706.5,42.3 705.7,39.3 705.1,41.8 						"/>
						<path class="st2" d="M694.8,41l2.4,0.6c-0.1-0.5,0.2-0.8,0.5-1.1C696.3,40.6,694.7,40.2,694.8,41z"/>
						<path class="st2" d="M697.8,40.6c0.7,0,1.5-0.1,1.8-0.7C699.2,40,698.3,40.2,697.8,40.6z"/>
						<polygon class="st2" points="703.4,43.4 702.7,42.9 701,42.8 						"/>
						<path class="st2" d="M669.8,41.9l-2.5,1c-0.2,1,0.5,1.6,1.4,1.2C669.3,43.4,670.2,42.9,669.8,41.9z"/>
						<path class="st2" d="M677.9,49.8c-0.7-0.6-0.8-1.3-1.3-2.2l0.1,3.7L677.9,49.8z"/>
						<path class="st2" d="M670.5,51c-0.2,1-3.6,3.2-0.3,2.8C670.4,52.7,672.9,51.7,670.5,51z"/>
						<polygon class="st2" points="631.8,47.4 632.4,47.4 632.3,41.3 						"/>
						<path class="st2" d="M597.8,62.2c3,1.5,0.7-3.8,3.5-1.9c0.7-1.4-2.2-1.5-1.5-2.7C598,59.1,597,58.2,597.8,62.2z"/>
						<path class="st2" d="M599.8,57.5c0.3-0.2,0.6-0.5,0.9-0.9C600.2,57,600,57.3,599.8,57.5z"/>
						<polygon class="st2" points="217.5,27.8 215.5,26.5 216.8,28.5 						"/>
						<path class="st2" d="M213.7,32.3l-0.4-3.9l-1.2,3.5C212.5,31.7,213.4,31.4,213.7,32.3z"/>
						<path class="st2" d="M479.1,65.9l0.2-0.9c-0.3-1-0.7-1.1-1.7-1.3L479.1,65.9z"/>
						<polygon class="st2" points="452.7,62.8 453.2,62.9 452.4,59.3 						"/>
						<path class="st2" d="M430.6,67.1c0.9,0.2,2-0.6,2.9-0.5C431.5,67.2,430.4,62.7,430.6,67.1z"/>
					</g>
				</g>
			</g>
		</g>
	</g>
</g>
<g id="Layer_2">
	<g>
		<g>
			<g>
				<g>
					<g>
						<path class="st3" d="M1169,6.3c1.3-2.4-0.7-0.6-2.6,0L1169,6.3z"/>
						<path class="st3" d="M1166.3,6.2l-1.9,0C1165,6.4,1165.6,6.4,1166.3,6.2z"/>
						<path class="st3" d="M1149.1,7.3c3.7-2.2,8.7-0.7,10.7-3.6C1155.6,2.8,1149.6,4.4,1149.1,7.3z"/>
						<polygon class="st3" points="1155.2,8.1 1155.5,6.6 1152.4,9.3 						"/>
						<polygon class="st3" points="1157.9,9 1157.3,8.6 1152.1,10.8 						"/>
						<path class="st3" d="M1135.7,8.3l3.9-1c3.9,1.3-2.1,2.9,0.6,3.8c4.9-0.8,1.1-4.2,7.3-4.5c-0.8-1.7-9.8,1.5-9.2-1.5
							C1133,5.1,1138.3,6.9,1135.7,8.3z"/>
						<path class="st3" d="M898.7,43.2c-0.2-0.1-0.4-0.2-0.6-0.2C898.3,43.2,898.6,43.4,898.7,43.2z"/>
						<path class="st3" d="M833.1,46.7c-0.9-0.3-1.8-0.4-2.7-0.5c0.3,0.3,0.6,0.5,1.1,0.8L833.1,46.7z"/>
						<path class="st3" d="M939.5,36.2c1,0.3,1.8,0.4,2.6,0.6C941.6,36.4,940.8,36.1,939.5,36.2z"/>
						<path class="st3" d="M522.6,26.3c0.2-0.2,0.3-0.5,0.4-0.8c0,0-0.1,0-0.1-0.1l-0.7,0.8L522.6,26.3z"/>
						<path class="st3" d="M759.6,51.6c-1,0-2.1,0.1-3,0.3C758.3,51.9,759.2,51.8,759.6,51.6z"/>
						<path class="st3" d="M963.1,34.7c-0.4,0-0.7,0-1,0c0.3,0.1,0.8,0.2,1.2,0.2L963.1,34.7C963.2,34.7,963.2,34.7,963.1,34.7z"/>
						<path class="st3" d="M854.6,50.2c-0.9-0.2-1.7-0.3-2.4-0.3C853,50.1,853.8,50.2,854.6,50.2z"/>
						<path class="st3" d="M1075.3,12.6c-1.1-0.1-2,0.1-2.8,0.6C1073.2,13.5,1074.1,13.5,1075.3,12.6z"/>
						<path class="st3" d="M1052.1,15.3c0,0,0.1,0,0.1,0C1052.1,14.9,1052,15,1052.1,15.3z"/>
						<path class="st3" d="M1037.3,16.4c0.1,0,0.2-0.1,0.3-0.1C1037.3,16.1,1037.2,16,1037.3,16.4z"/>
						<path class="st3" d="M1072.5,13.2c-2-0.9-3-4.4-5-0.2l0.5,0.5c-1.6-0.7-3.6,1.1-5.3,1.3c0.2,0.4,0.4,0.6,0.7,0.9
							c0.9,0,2-0.1,3.8,0C1069.4,16.3,1070.5,14.2,1072.5,13.2z"/>
						<path class="st3" d="M898.9,42.4C899.1,43.2,900.7,42.7,898.9,42.4L898.9,42.4z"/>
						<path class="st3" d="M919,38.7c-0.7,0-1.3-0.1-2,0C917.7,38.8,918.3,38.9,919,38.7z"/>
						<path class="st3" d="M995.2,35.6c-0.1-0.1-0.2-0.1-0.4-0.1C994.8,35.9,995,35.8,995.2,35.6z"/>
						<path class="st3" d="M915.2,38.7c0.6,0,1.2,0,1.8,0C916.4,38.6,915.9,38.5,915.2,38.7z"/>
						<path class="st3" d="M972.2,34.9c-0.1,0-0.2-0.1-0.3-0.1C972,34.9,972.1,34.9,972.2,34.9z"/>
						<path class="st3" d="M209.1,16.1c1.5-0.4,2.5,0.6,3.9,0.8c3.1-2.8-6.7,0.3-2.1-2.3c-1.4,0.1-2.6,0.5-3.6,0.9l2.2,2.4
							C212.3,16.8,207.6,17.2,209.1,16.1z"/>
						<path class="st3" d="M503.6,20.8l0.7,0.2c-0.4-1.1,0-1.5-2.5-2.1c-2.2,1.7,1.1,4.3-2.6,6.1c0.7-0.2,1.8-0.1,2.8,0.2
							C500.4,23.7,502,22.1,503.6,20.8z"/>
						<path class="st3" d="M501.9,25.3c0,0,0.1,0.1,0.1,0.1c0.2,0.2,0.3,0.4,0.5,0.6c0.5,0,1.1,0.1,1.5,0.3
							C503.7,25.9,502.9,25.5,501.9,25.3z"/>
						<path class="st3" d="M260.2,15.1c0.6,0.1,1.2,0.1,1.7,0.2C261.1,14.9,260.6,14.9,260.2,15.1z"/>
						<path class="st3" d="M764.3,20.2c0.7-0.2,1.5-0.5,2-0.8C765.2,19.6,764.7,19.9,764.3,20.2z"/>
						<path class="st3" d="M539.7,23.9c0.6,0.2,1.2,0.3,1.8,0.4c0.4,0,0.7-0.1,1.1-0.1L539.7,23.9z"/>
						<path class="st3" d="M419.1,46c1.3-2.8-1,0.2-3.5-1.4l-2.4,1.5C415.4,46.6,417.4,46.1,419.1,46z"/>
						<path class="st3" d="M207.2,15.4c0,0.1,0,0.2,0,0.3c0.1,0,0.1,0,0.2-0.1L207.2,15.4z"/>
						<path class="st3" d="M348.6,46.7c-0.4-0.1-0.8-0.3-1.2-0.4C347.7,46.5,348.1,46.6,348.6,46.7z"/>
						<path class="st3" d="M516.1,26.7l9.1,0.3l-2.6-0.7C521.3,27.7,517.4,25.1,516.1,26.7z"/>
						<path class="st3" d="M457.8,48l0.8,1.7c9.1-3.5,19.4,1.8,26.7-3.2c10.9,6.1,7.3-5.2,17.3,0.3l-0.3-0.9
							c33.2,1.5,68.4,5.3,99.6,3l-0.1,1.2c50.1,3,99,1.3,148.9,2.4c4.7-1.1,1.9-3.7,5.9-5.1c1.7,0.1,5.7,0,5.7,1.4
							c-3.4,0.8-1.5,2.1-2.6,2.7c5.6-0.2,12.8,1.5,17.8-0.2l-4.2-1.9c1.9-0.8,5-0.3,6.8-0.2c-0.7,1,1.8,3,0.3,3.5
							c10.5-4.7,8.2,2,17.1,0.1c1.7-4,12.8-7.4,20.1-10.4l3.9,1c-5.1,0,0.1,2.9-6.2,2.8c5.3,1.1,10.2-0.7,15.2-0.1
							c-1-1-0.8-2.3,1.2-2.8c3.1,0.5,3.4,2.5,6.9,2.7l-3.4,1.3c2.4,1.5,4.3-0.6,6.5-0.8c0.7,1.7,6,1.9,5.1,3.8
							c4.7-2.4,6.4-1.1,11.4-2.7c-5.3-1.6,1.3-2.3,0.7-3.6c-2,0.3-4,0.5-5.9,0.8c8.4,1-2.7,0.3-2,3.2c-4-1.3,5.3-4.8-1.3-4.3
							c7.9-1.6,9.6-0.4,17.6-3c-4.9,0.7,0.9-1.9-1.8-2.7c6.2-0.3,1.6,1,3.5,2.8c3.4-0.2,4.6,1.4,7.7-0.8c5.5,0.7-0.8,2.2,2,3.3
							c-2,2-15.3-2-13.6,4.2c-2.9,0.1-6.3,2.7-10.4,2.6c3.6,0.8,8.8,2.7,13.2,1.1l0.1-3.6c3.4-0.2,4-2.6,6.4-2.4
							c-1.3,1.1,1.1,2.5,3.8,2.1c-0.8-0.5-1.9-0.3-1.6-1c5-0.4,5.6-2.8,11.6-3.7c-5-0.8-6-1.8-10.6-3.3c1.2-2.5,3.2-0.4,5.9-0.8
							c-0.4,0.3-1,0.4-0.1,0.9l2.8-1.3c6.2,0.9-0.7,3.6,4.4,4.7c3.6,2,4.8-1.3,7.5-0.3c-0.2-0.2-0.4-0.5-0.5-0.6
							c0.6,0,1,0.1,1.3,0.1c0-0.1,0-0.1-0.1-0.2c3.2-0.5,6.8-0.4,7.6-2.3c0.4,0.8,2.8-0.3,3.9-1c1.8-0.8,6-3.2,8.9-0.3
							c-0.1,0-0.1,0-0.2,0c4.1,0.2,7.3,1,6.4,2.1l6.6,0.4l-0.6,2.5c5.9-1,5.3-2.3,9.3-5c4.3,1.2,11.8-0.3,14.5-1.3
							c0.5,0.1,1.2,0,2.4-0.1l-2.5-0.8c4.7-0.1,4-1.4,7.1-1.6c-0.6-0.2-0.7-0.3,1,0c0.5,0,1.1,0,1.8,0.1c-0.1,0.3-0.8,0.3-1.5,0.2
							l0.6,0.8c3.9,2.3,5.6-1.8,9.6-1.2c-0.4,0.1-1,0.3-1.4,0.3c2.3,0.5,5.7,3.7,6.5,1.6c0.5,0.2,1.3-0.2,2-0.8l1.7,0.3
							c-0.7-0.1-1.2-0.2-1.6-0.3c1-0.8,1.9-1.7,2.1-1.2l5.7,0.1c1.1,0.3,2.6-0.1,3.7-0.5l1,0.9c2.1-0.3,2.1,0.3,1.9,0.6
							c7.5,2.9,11-2.6,19.1-0.2c1.4-1.8-1.9-2.3-2.2-3.2c1.1-1.4,5.5-2.9,7.6-4c3.6,2.1,14.5,3.3,13.1,6.7c6.5-0.3-2.2-1.9,0.9-3.3
							l0.7,0.1c-2.3-0.2-4.1-1.2-5.4-2.4c-0.6-1.7,5-2.8,6.8-2.4l-1,2.7c5.8-1.5,4.3-5.2,7.7-8.1c4.8,0.6,2.3,3.2,3.5,5.4l4.9-1.1
							l0.2,1.9c3.2-0.8,3.7-2.7,8.3-2.3c-3,2.1,6.9,1.2,2.7,4c2.5,0.4,2.9-3.4,4.4-0.9c1.5-2.2-2.3-0.8-3.6-1.3
							c-0.7-1.4,0.7-1.9,2.5-2.2c1.8-0.3,4.2-0.4,5.6-0.9c0.4,1.5-1.8,2,1.8,2.6c0.6-1.2,2.7-2.4,4.8-1.2c-0.2-1.9,3.9-0.8,5.9-0.9
							c-2.3-0.1-5.6-1.2-4.4-3c1.6-1,3.1-1.5,7-1.7l-2.8-0.6c3.1-3.2,5.9,1.4,10.5,0c-1.8,1.4-3.1,1.5-4.6,3.1
							c2.1-1.1,6.1-3,9.5-4.3c1.4,0.8,2.9,1.5,4.3,2.3c0.3-1.5,4.4-0.5,4.2-2.4c5.1,0.6-3.7,2.8-4,4.3c6.3,0.5,4.5-3.8,10.8-1.7
							l-1.7,2c2-0.1,5.8-1.7,6.2-0.8c-0.1-0.6-1-0.3-2.3-0.1c0.7-4,8.7-3.9,7.5-7.7l-2.7,0.1c4.1-1.3,6.6-4.4,10-3.4
							c2.6,1-1.3,2.9-2.7,4.1c3.9-0.3,2.6-4.7,7.3-5c-2.5-0.3-2.3-1.8-0.9-3c-2.7,0.1-8.5,0.1-7.2,1.6l1,0.3
							c-0.1,1.1-1.5,1.6-2.2,2.2c-3.7,0.5-2-1.6-2.8-2.2c-6.2,0.2,0,4-5.6,4.6l-0.8-0.7c-2.6,1.4-6.7,2.1-7.2,4.6
							c-2.8-2.2-6.2,1.9-9.1,0.7c-1.2-5.6,9.6-0.9,12.4-4.4c-3.1-0.8,1.3-2.9,2.4-4.3l-9,3.6c-0.8-0.7-3.9-3.1-5.3-0.9l0.7,0
							c-3.6,1.1-2.3,3.3-5.6,2.9c-0.6-0.5,0.3-1.5,0.5-1.9c-3-0.2-2.3,1.6-4.2,2.3c-3-0.2,1.2-2.5-1.3-2.8c-3.2,2.6-5.5,0.1-8.4,0.6
							c1.6,3.1-11.3,5.7-4.6,7.8l-6.9,3c-2.4-1.4,4.4-5,2.2-7.5l5.7-0.5c-1.4-3.9-11.6,3.9-15.8-0.1c-3,0.1-2.2,0.6-8.2-0.8l1.3,3.5
							c-3.1-0.5-4.2-2.4-4.4-3c-1.7,0.4-3.3,0.4-4.9,0.4c0.4-0.6,0.9-1.1,2-1.4c-2.4-1.8-3-1-3.7,0.2c-1.1,1-3,1.1-4.8,1.2l1.6-1.5
							c-1.1,0.4-2.5,0.9-2.5,1.6c-0.8,0.1-1.5,0.2-2.2,0.5c0.6,0.6,2,2.5,4.7,3.2c-7-0.8-12.3,0.6-18.5-2c0.1-1,2.5-2.5,1.7-2.6
							c-3-0.3-6,1.8-5.7,3.3c-0.7,0.2-1.2,0.2-1.6,0.3c-0.6-0.8-1.4-1.7-2.8-1.8c-0.3-0.3-0.9-0.5-1.9-0.6c-0.8,2.9-6.5,1.9-7.7,3.3
							c1.4,0.2,3,0,4.6-0.2c-2.2,2.1-4.2,4.4-6.2,3c4.3-2.1-4.9-2.6,1.7-3.9c-4.9-3.2-2.2,2.8-7.3,1.9l-3.3-1.2
							c0.3-2.1,5.1-1.4,4.3-2.1l-2.2,0.4c2.1-1.7,10.5-1.4,15.5-4.1l-10.4-0.3c-3.2,0.9-6.6,1.5-10.2,1.8c-3.5,0.4-7.1,0.6-10.6,0.9
							c-7.1,0.6-13.9,1.5-19.3,4.1c0.2,0,0.3-0.1,0.5-0.1c-0.2,0.2-0.3,0.6-0.4,1.4l-0.5-0.5l-2.1,1.7c-2.6-1.8-7.3-2-11.3-3.3
							c2.6,1.2,2.6,1.2,2.9,2.7c-0.4,2.1-0.7,3-4.5,2.4c-0.1-1.5,2.2-1.5-0.6-2.6c1.4,0.6,0.2,1.7-1.4,2c-2.1-0.8-5.6-0.9-5.7-2.3
							c0.9-0.4,1.7,0,2.4,0.2c0.9-0.4-4-1.1-1.2-2.5l-3.7,0.6c-2.3-1.1,1.4-2,0.5-2.7c-6.2,1.3-9.3,4.9-14.9,6.1
							c0.2-0.8,0.2-4.1,0.1-3.1c-4.4-0.8-9.2,3.9-14.2,4.4c0.7-1,2.6-0.7,4.1-1.2c-7.6-0.3-14.5-0.4-21.4-0.7
							c-6.8-0.4-13.5-1-20.7-2.4l-3.6,3.5l-3.8-2.1c-7.5-0.9-14.1-0.8-20.7-0.3c-6.5,0.5-13,1.4-20.1,2c-4.4,0.3-2.7-2.3-4.8-3.2
							c-9.8-0.3-12.1,3.5-21.4,4.3c1.3-1,3.4-4-0.6-4.1c-0.7,1-1.2,2.5-3.8,1.9l1.3-1c-2.3-1.5-4.5,0-9.3-0.7
							c-8.5,0.1-16.5,2.4-23.5,6.2c-7.5-0.3,0.8-3.6-0.6-4.3c5.3,1.2,3.7-0.6,4.8-1.8c-2.8,1-6.2,1.5-7.6-0.9
							c-3.9,0.1-5.6,0-9.5,1.6c1.9-0.8,3.6,0.5,1.8,1.6c-3.2-0.9-11.3,0-10.8-3c-18.4,0.5-39-0.4-58.7-0.5c-3.3,1.5,2.5,0.6,0.7,1.7
							c-4.9,1.9-3.8-1.1-7.7,0.4l1.6-1.6c-5.8-0.3-11.9,2.6-17.5,4c1-1.8-4.6-1.6,0.1-2.7c-2.7,0.3-5.9-8.1-8.1-6.4l3,7.8
							c-0.2,0.8-4,0.2-3.6,0.8c-2.4-1.6-5.3-3.4-6.9-3.4c-0.8-2,3.4-1.5,5.6-1.4c0.4-3.3-7.6-2.2-4.3-5.2c-4.9,0.5,0.7,1.7-2.3,2.9
							l-4.2-0.8l3.3,1.2c-3.6,0.9-4.8,3.4-9.5,1.5l-5,3.1c-0.5-2.6-3.6-0.5-6.1-1.2l1.6-1.6c-3.4,0-4.7-0.4-6.7-1.4
							c1.9-2.2,3,0.6,3.9-1.5l-3.7-0.8c0,1.5-2.4,2.6,0.2,3.5c-3.5,2.7-5.4,4.9-14,4.5c-3.8-2.6,4.2-2.1,2.6-4.7
							c-8.9-1.2-11,6.3-16.2,5.9c-6.6-1.1-6.3,1.2-13,1.2c2.2-1.7-4.7-1.9-5.9-3.6l2.7-1.7c-2.1,0.5-4-0.2-3.4-1.4
							c0.3,2.3-8.8,2-13.4,3l0.8,2c-3.6,0.6-8.7,1.7-12.5,1.2c-5.7,0.5-4.5,2.3-8.9,4.4c-2.4-1.8-2.1-3.9-1.3-6.1
							c1.5,1,4.1,0.5,6.6,1.1c7.3-1.6,13-5.6,20.2-4.5c3.2-4.7-4.9,0.5-8.4-1.3c0.1-0.3,0.4-0.4,0.6-0.4c-0.3,0-0.6,0-0.9-0.2
							c2.6-0.5,6.8-1.2,7.6-3.6c-4.3,0.4-3.2,4.7-8.6,2.6c-4,1.3-7.2-2.6-9.6-2.9c-2.7,1.7-2.9,5.6-9.4,4.7l2.9-2.6
							c-7.4-0.2-3.5,3.9-10.4,3.6c2.4,0.4-2.4,2.6,2.2,2.7c-2.3,1.4-7.3,1.6-11,0.7c-1,0.4-0.2,0.9-0.4,1.8c4.1,1.9,6.5-1.7,9.9,1
							l2.9-2.8c3.8,1.1,4.2,3.4,1.8,4.5c1.1-0.1,2-0.5,2.8,0c0.6,4.4-4.6-1.6-6,2l2.7-0.3c1.1,2.8-6.4,2.4-9.8,2.1
							c-3.9-1.4-7.5-1.9-7.8-4l5.3-0.8c-2.7-1.7-6.8,0.8-9.9,0.7c-0.2-0.3-0.5-0.5-0.8-0.6c0.2,0.2,0.2,0.4,0.2,0.6
							c-0.7-0.1-1.2-0.4-1.7-0.9c-2.7-0.1-6.7,1-9.2,0.4l0.3,1.8l0.4-1c2.5,0.1,5.8,1.3,3.9,2.6c-5.6,1.2-6.7-2.3-8-3.9
							c1.3-2.8,5.5,0.1,8.3-0.8c-1.7-2.8-5.7-0.4-11.4-2.3c2.3-3,6.7,0.1,8-2.6c-4.6-0.6-5.9,1.5-10.8,0.7c0.6-1.4,5.4-1.5,5.1-3.3
							l-3.1-0.9c7.7-0.1-1.3-3.8,4.7-4.4c-2.8-1.3-4,2.4-8,0.4c1.1,1.3,4.3,3.8,0.4,4.9l-4.4-1c-1.8-1.5,4.6-3.2,1.8-4.4l-4.6,1
							c0.1,0.9,2.3,1.4,0.9,2.6c-2.6-1-4.4,3.4-7.5,4.7c-2.5-0.1-4.4-0.3-5.3-1.4c-6.3,2.6-14.2,2.4-20,4.9c3.9-1.8-0.1-3.1-2.5-4.5
							c4.5-0.3,4.6-3.2,4.3-5c-2.8,0.3-4.6,3.2-3.2,4.1c-4.6-1.2-3.2,1.9-7.2,0c-2.6-1,1.3-2.8,0.4-3.9c-5-0.2-1.4,3.4-6.8,2.7
							c0.3-0.4,0.8-0.5,0.4-1c-2.9-0.6-6.1,0.7-6.7,2.1c-3.1-3.7-8.7,0.3-8.1-3.2c-7.1,0.9,1,2-0.4,3.2c-2.9,1.6-8.2,0.2-9.9-0.3
							c1.7-0.1,3.3-1,5-0.5l-1.5-2.5c-8.8-1.8-5.6,5.6-14,3.4c4.4-1.3,1.5-1.9,3.6-3.7c-1.3,0.6-8-0.1-3.9,1.8
							c-3.2-0.2-5.4-0.7-7.6-1.1c-2.8,1-5.9,1.7-7.5,3.3c-4.5-0.3-7.8-2-9.9-3.1c-9.4,1.8-18-1.2-27.9,0.8l0.7,0.1
							c-7.7-0.4,3.4,3.3-4.5,3.3c1-3.1-4.8-2-7.4-3.6c-9.8-1.4-16.9,2.5-25.9,0.6c0.1-0.6,0.6-1.4,2.4-1.5
							c-6.9-0.8-12.4-0.2-18.6-0.1l0.3-0.4c-10-2.2-19,1-29.2,2c0.8-0.4,1-1.6,1.6-2c-5.2-0.5-13.5-0.6-17.1,2.3
							c-6.3-2.8-4,1.1-12.1-1.5c-0.5-0.5,0.8-0.5,1.3-0.7c-3.9-0.9-6.7-0.5-10.6-0.6c-8.6,2.4-10.6,6.4-20.7,5.7
							c-0.7-4.1,6.2-1.3,6.2-4.7c-2,0.8-3.7,1.8-6.5,0.9c1.6-1.7,0.3-1,1.4-2.6c-2.2-1-8.4,4.8-8.3,4.4c-0.1,0.8,0.7,1.2,2.7,1
							c-2.2,2.7-9.9,0.7-14.7,2.1c1.6,0,6.6,0.5,4.9,2.5c-6.6-0.5-8.5,3.7-13,5.6c-6.1-1.5,4.2-3.8,2.9-6.6c-1.1-1-3.6-3.2-1.2-4.5
							c-5.5-0.3-9.2,2.5-14,3.4l0.1-0.8c-3.4,0.4-6.8,1.6-10.1,2.6c-3.3,1-6.5,1.7-9.4,1.1l3.1,0.7c-1.1,0.6-4.5,0.6-6.2,2.4
							c0.1-1.4-4.4-2.3-2.7-3.5c-2.7,4.6-15.1,3.9-18.1,8.3c-1.9-0.9-0.6-2.8-0.1-3.9c4.3,0,5.8,0.8,7.9-1.1
							c-3.5,0.3-6.2-0.6-5.8-1.6c-3.3,3-11.7,4.9-13.2,7.8c-2.7-1.1-5.2-1.6-4.6-4c-10.7,2.4,6,6.5-6.2,7.6
							c-5.8-1.7,5.2-3.5-2.6-3.5l1.4-0.5c-6.1-5.3-3.5,4.5-9.8,4.9c-1.2-3.1,4.2-2.7-0.4-4.5c-5.7,1.4-7.7,6.4-13.5,6l0.8-1.4
							c-3.7,0.7-10.9,0.8-14.5,1.5c-0.2-0.6,0.3-0.6,1-0.8c-6.9-0.4-2.6,1.9-8.5,0.4l-1.4,1.7c2.9,0.8,8.5,1.7,11.8-0.5
							c-3.3,2.2,6,3.4,4.5,6.3l0.6-1.2c4.8,1.8,10.2,2.5,15.9,2.8c5.6,0.3,11.6,0.4,17.5,0.7c7-3.9,12.6,0.1,20.3-2.9
							c0.9-3.8,1.4-0.9,8.1-2.2c-3.5,0.7-0.2,2.9,2.1,3.2c1.2-1.1,2.8-1.5,4.4-2c1.5,1.2,10.2,3.5,13.1,0.7c4.2,0.9-0.9,1.3-1.7,2.1
							c1.8,1.8,3.2-1.8,4.7-0.6c0,0,0,0.4-0.5,0.6c6.3-0.7,10.1,0.1,16.7,0.1c0.3-3.7,6.4-1.8,9.2-3.3c-0.9,1.2,3.8,1.1,5.7,1.7
							L184,44c3.3-2.5,4.9,1.3,9.4-0.2l-1.1-0.6c3.2-1.3,12,0.5,15.3,2.3c7.5-2.1,14.2-3.2,20.5-3.4c6.3-0.2,12.3,0.2,18.3,0.8
							c12,1.1,24.2,3.2,40.2,1.8c2.1-1.2-1.6-1.8,0-3.5c3.2-0.5,4-0.4,7-0.5c-2.6-0.9-2.2,0.3-1.9-0.7l-4.5,1.2
							c-0.2-0.3,0.3-0.4-0.2-0.9c-1.5,0.4-3.3,1.2-5.3,1c2.8-1,3.5-3.7,7.4-2.8c-0.3,0.4-0.8,0.5-1.8,0.8c3.2,0.1,3.3-1.2,5.7-0.5
							c2.9,0.5,2.2-0.3,2.6,0.9l9.1,1.3c4.5-3.3,10.1-0.3,11.6,0c-0.9,2.4-6,0.8-8.2,3.3l3.3,1.7l0.2-1.9l4.7,0.5l-0.3,0.4
							c0.5-0.8,1.1-1.5,2.3-0.9c0.2,0.3,0.7,0.8,0.2,0.9l3.3-1.1c-1.9,2,2.9,0.5,2.5,2.9c10.8,1,13.7-3.2,23.3-0.2
							c-1.6-1.1,3-3.7,5.9-3.3c1.7,0.6,2.1,1.1,1.1,2l3.8-1.2c4.8,3.6,9.5,1.2,16.6,2.5l-0.4,1c2.6-1.2,5.4-2.2,9.3-1.8l-0.7,2
							c4.8,1.4,3.7-4.3,9-3c0-2.2-3.4-3.3-3.9-5.4c1.3,2.2,6.9,2.6,5.6,1c5.3-0.9,3.7,0.1,4.1,0.6l3.1-1.3c3.7,0.1,1.2,2.9-0.2,4.1
							c3.5-2.3,7.2-0.7,11.2-0.3l-1.6,1l5.2,0.4c3.4-1.7,8.1-1.8,12.5-0.9l-3,2.9c3,1.5,1.6-1,2.4-1.5c4.8-1.4,5.9,0.6,8.4,2.2
							C443.6,44.5,451.2,52.3,457.8,48z M993.3,34.4l-0.7-0.4C994.1,33.4,995,32.9,993.3,34.4z M950.6,36.1c5.1-1.4,3.5,0.1,4,0.8
							c-5.1-0.5-7.9,0.5-12.4-0.2c0.7,0.5,0.9,1.3,1.2,1.8c-1.8-0.1-3.6-0.6-4.3-2C941.1,33.5,952.9,37.7,950.6,36.1z M1045.2,15
							c-0.2,0.2-0.3,0.5-0.5,0.7c0,0,0,0,0,0L1045.2,15z M1020.2,19.8c-0.4-0.6-1.1-0.9-1.8-1.1
							C1018.9,19.5,1019.4,20.1,1020.2,19.8z M969.7,19.8c-1.2-1.1-3.9-0.6-5.8-0.2C964.8,19.6,966.4,19.9,969.7,19.8z M651.5,25.3
							c1.5-0.4,4.4-1.6,1.8-2.5c-1.3,1-3.7-0.8-4.8,0.8c-0.2-0.1-0.2-0.1-0.3-0.1C649.8,24.4,651.1,25.3,651.5,25.3z M501.5,32.5
							c0.3-1.2,1.4-2.5,0.7-3.4c0.1,0,0.3,0.1,0.4,0.1c-0.4-0.4-0.7-0.7-0.4-1c-1.2-0.3-2.5-0.6-3.4-0.2
							C498.4,31.9,495.8,32.5,501.5,32.5z"/>
						<path class="st3" d="M551.8,17.5c-0.6,0-1,0-1.4,0.1C550.8,17.6,551.3,17.5,551.8,17.5z"/>
						<path class="st3" d="M499.1,28.1c-0.1,0.2,1.3,0.6,3.1,1.1C501.9,28.7,501,28.3,499.1,28.1z"/>
						<path class="st3" d="M1128.7,18.6l-1.4,0.6l3.1,0.8c4.8-1.9,4.8-3.6,5.7-5.7c-4.2,2.4-7,1.8-12.6,3.1L1128.7,18.6z"/>
						<path class="st3" d="M1124.5,6.2c-0.6-0.4-2-1.6-2.7-1.6l-0.6,1.3L1124.5,6.2z"/>
						<path class="st3" d="M1065.8,7.5l4.8,0.5C1071.9,6.9,1066.4,5.7,1065.8,7.5z"/>
						<path class="st3" d="M1088.8,25.5l2.3-1.6c-2.3-0.8-5.3-0.3-5.6,1.1C1088.3,24,1086.3,25.8,1088.8,25.5z"/>
						<path class="st3" d="M1053.3,8.5c-1.2,2.4-4.8-0.6-5.5,1.7C1048.9,9.4,1053.3,10.8,1053.3,8.5z"/>
						<path class="st3" d="M1058.7,30.1c1.7,2,4-0.1,7,0.1C1063.3,30.5,1059.6,28.5,1058.7,30.1z"/>
						<path class="st3" d="M1028.9,17.4c0.1-1.7,2.1-1.7,4.3-1.6c-0.7,0.6-1.1,1.4-2.1,1.7c3.6-1.6,3.8-1.4,6.7-2.4
							c-3.1-0.9-7.5-1.2-7.2-3.3C1028.6,13.6,1026,16.1,1028.9,17.4z"/>
						<path class="st3" d="M1051.6,31.1c2.5,0.4,4.2,1.8,7.1,1.4c-0.6-1.1-1.8-2.7-5.2-2.1l1.1-2
							C1051.2,27.2,1056.1,30.8,1051.6,31.1z"/>
						<path class="st3" d="M1015,14l1.6,0.8c3.3-1.8,7.8-1.4,9.5-4C1021.9,11.2,1016.9,12.7,1015,14z"/>
						<path class="st3" d="M1039.1,28.7l-0.2,2.7c3.5,0-0.3-0.9,0.8-1.6c1,0.3,2.5,0.4,3.2-0.2C1039,30.3,1042.5,27.4,1039.1,28.7z"
							/>
						<path class="st3" d="M1028,32.6l-4.3,1.5l3.7,2.7C1032.5,35.4,1027.5,35.1,1028,32.6z"/>
						<path class="st3" d="M1022.4,31.3l-0.5-0.5l-6.3,4.5C1019.4,33.3,1019.6,33.6,1022.4,31.3z"/>
						<path class="st3" d="M940.7,18.9c-0.7,1.2,3.3,2.4,1.5,1.2C943,19.2,937.7,17.9,940.7,18.9z"/>
						<path class="st3" d="M957.8,39.8c-1.9-0.8-8.1,1.2-10.8,2.1C950.2,41.2,958.3,41.3,957.8,39.8z"/>
						<path class="st3" d="M945.9,42.3c0.2-0.1,0.6-0.2,1.1-0.4C946.5,42,946.1,42.1,945.9,42.3z"/>
						<path class="st3" d="M831.1,51.8c-0.3,0-0.6,0.1-0.8,0.3C830.5,52,830.8,51.9,831.1,51.8z"/>
						<path class="st3" d="M833.8,51.1c1.9,0.4,5.5-0.4,6.2-1.7c-2.9,0.6-5.5,1-8.9,2.4C832.4,51.6,834,52.5,833.8,51.1z"/>
						<path class="st3" d="M807.4,50.8c1.4-0.7,3.2-0.4,2.8-1.5C809.4,48.8,806.5,50,807.4,50.8z"/>
						<path class="st3" d="M630.4,15.7c-2.5-0.7-4-0.2-3.4,1.5C629.9,17.2,628.4,16.2,630.4,15.7z"/>
						<polygon class="st3" points="623.8,17.5 623.5,16.7 621.9,15.4 						"/>
						<path class="st3" d="M606.4,14.7c0.1-0.3,0.6-0.6,1.1-0.7C606.5,14.2,605.7,14.5,606.4,14.7z"/>
						<path class="st3" d="M608,13.9c-0.2,0-0.3,0.1-0.5,0.1C607.7,14,607.8,14,608,13.9z"/>
						<path class="st3" d="M609.1,14.5l0.2-0.9c-0.3,0.1-0.8,0.2-1.4,0.3C608.5,13.9,609,14,609.1,14.5z"/>
						<path class="st3" d="M601.2,14.3l3.3,2.6c3.5-1.2-3.9-1.4-0.5-4.1L601.2,14.3z"/>
						<path class="st3" d="M589.6,14.9c-3.2-0.9-7.8,3.1-9.6,0c-9,1.4,2,5.1-8.3,6.1c9.7,1.7,5.1-5.8,13.6-3.9
							C581.3,15,588.2,15.6,589.6,14.9z"/>
						<path class="st3" d="M591.1,20c0.5-1.5-3.5-1.7-4.8-0.7C587.5,19.5,589.5,21.6,591.1,20z"/>
						<polygon class="st3" points="572,15.9 569.3,14.7 568.6,15.6 						"/>
						<path class="st3" d="M561.6,15.1l2.7-1.7C563.4,14.1,559.4,13.8,561.6,15.1z"/>
						<path class="st3" d="M547.1,12.6c-2.5-0.6-4.9,3.4,0.5,2.6l-1.2-0.2C546.7,14.4,543.9,12.9,547.1,12.6z"/>
						<path class="st3" d="M513.4,18.5c1.7,0.1,3.8-0.4,3.4-1.2l-4.8,0.7L513.4,18.5z"/>
						<path class="st3" d="M513.9,28.4c1.6,2.5,4.5-0.1,7.6,0.7C518,28.6,518.4,28.3,513.9,28.4z"/>
						<path class="st3" d="M508,14.8c1.3-1,3.3-0.3,4.5-0.1C511.9,13.3,508.7,13.6,508,14.8z"/>
						<path class="st3" d="M500.4,15.6c-1.5-1,0.4-1.4-0.8-2.1c-3.3-1.2-6.8-1.1-8.7,0.3c0.9,1.1,2,4,0.6,5.2
							c5.3-0.8,8.1-5.4,10.7-1.8l4.5-4.3C502.4,12.1,503.4,15.9,500.4,15.6z"/>
						<path class="st3" d="M511.1,24l-2.8-1.5c0.5,1.4-1.6,1.6-3.1,2.1C505.8,27.7,509.4,24.1,511.1,24z"/>
						<polygon class="st3" points="470.9,17 464.8,17.7 466.8,17.9 						"/>
						<polygon class="st3" points="467,16 466.9,15.1 462.2,16.7 						"/>
						<polygon class="st3" points="460.7,14.8 461.4,15 465,14.2 						"/>
						<path class="st3" d="M448.1,14.1l1.1,1.3c1.5-0.3,4.6,1.2,4.3-0.6C452.1,15.4,448.9,15.2,448.1,14.1z"/>
						<path class="st3" d="M406.1,47.7c1.1-0.9,0.4-1.7-0.2-2.5l-1.7,2.3C404.6,47.4,405.7,47.1,406.1,47.7z"/>
						<path class="st3" d="M398.8,43.9l-4.5,2.6c5.1,0.4,5.9-1.6,10.4-2c-1.9-0.8-4.6,1-7,0.3L398.8,43.9z"/>
						<path class="st3" d="M309.3,42.6c0.4-1.7-0.6-1.4,2.7-2.6c-4.5,1.1-8.5,0.8-13.7,1.1c0.9,1-2.9,2.9-1,2.4l5.8-1.1l-0.9,1.2
							C306.4,44.9,304.9,41.7,309.3,42.6z"/>
						<path class="st3" d="M74.3,38.6c0.5-0.9-0.3-1.5-1.1-2.2C69.8,37.7,75,38.3,74.3,38.6z"/>
					</g>
				</g>
			</g>
		</g>
	</g>
</g>
</svg>
